<svg xmlns="http://www.w3.org/2000/svg" width="32" height="33" fill="none">
  <path fill="#fff" d="M30.423 18.302c-.98 8.05-10.498 11.221-19.166 10.166-8.67-1.056-9.123-5.76-8.142-13.812C4.095 6.606 6.28 2.223 14.95 3.28c8.669 1.055 16.454 6.972 15.473 15.023Z"/>
  <path fill="#2A6CCF" d="M29.36 17.382C28.59 25.48 17.95 30.34 10.066 30.34c-7.884 0-7.884 1.5-7.884-15.546C2.182-.49 1.576 1.015 12.86 1.015c8.474 0 17.272 8.27 16.5 16.367Z"/>
  <path stroke="#fff" stroke-linecap="round" stroke-linejoin="round" stroke-width="3" d="M13.957 9.71v11.495m5.747-5.747H8.21"/>
</svg>
