<svg fill="none" class="h-6 w-5" viewBox="0 0 20 24" xmlns="http://www.w3.org/2000/svg">
  <path fill="currentColor" d="M2.7 0A2.714 2.714 0 0 0 0 2.7v18.6A2.714 2.714 0 0 0 2.7 24h13.8a2.714 2.714 0 0 0 2.7-2.7V8.7a.9.9 0 0 0-.264-.636l-.009-.009L11.136.264A.9.9 0 0 0 10.5 0H2.7Zm0 1.8h6.9v5.1a2.714 2.714 0 0 0 2.7 2.7h5.1v11.7a.885.885 0 0 1-.9.9H2.7a.885.885 0 0 1-.9-.9V2.7a.886.886 0 0 1 .9-.9Zm8.7 1.273L16.127 7.8H12.3a.886.886 0 0 1-.9-.9V3.073ZM7.523 11.4a.9.9 0 0 0-.783 1.383L8.534 15.6l-1.793 2.817a.9.9 0 0 0 1.519.967l1.34-2.107 1.341 2.106a.9.9 0 1 0 1.52-.967L10.668 15.6l1.792-2.816a.9.9 0 1 0-1.519-.967L9.6 13.923l-1.341-2.107a.9.9 0 0 0-.736-.416Z"/>
</svg>
